# xmcd
#
# Track frame offsets:
#	150
#	18527
#	32695
#	43735
#	61147
#	74307
#	85217
#	102030
#	114565
#	131512
#	141695
#	159080
#
# Disc length: 2242 seconds
#
# Revision: 1
# Processed by: cddbd v1.4PL0 Copyright (c) Steve Scherf et al.
# Submitted via: audiograbber 1.82.01
#
DISCID=9f08c00c
DTITLE=Various Artist - Country Time With Billy White And The Blackies
DYEAR=1900
DGENRE=Country
TTITLE0=Remember Me
TTITLE1=A Pretty Girl In San Anton
TTITLE2=I Dream In The Night
TTITLE3=A Saddle Tramp
TTITLE4=Summer Is Gone
TTITLE5=Santa Fe Express
TTITLE6=I Need Your Love
TTITLE7=Truck Driver Song
TTITLE8=Your Place Is Deep In My Heart
TTITLE9=My Sweet Mexican Girl
TTITLE10=One Trouble Never Comes Alone
TTITLE11=I Am A Tramp
EXTD=
EXTT0=
EXTT1=
EXTT2=
EXTT3=
EXTT4=
EXTT5=
EXTT6=
EXTT7=
EXTT8=
EXTT9=
EXTT10=
EXTT11=
PLAYORDER=
